<svg xmlns="http://www.w3.org/2000/svg" version="1.1" xmlns:xlink="http://www.w3.org/1999/xlink" xmlns:svgjs="http://svgjs.com/svgjs" width="1000" height="350" viewBox="0 0 1000 350"><g transform="matrix(1,0,0,1,0,0.3832846248248529)"><svg xmlns="http://www.w3.org/2000/svg" version="1.1" xmlns:xlink="http://www.w3.org/1999/xlink" xmlns:svgjs="http://svgjs.com/svgjs" viewBox="0 0 320 112" data-background-color="#ffffff" preserveAspectRatio="xMidYMid meet" height="350" width="1000"><defs><mask id="cc5abe56-12c6-47c4-85dd-83a004447679"><rect width="320" height="17.18867635807192" y="124.02933186027619" fill="white"></rect><rect width="320" height="17.18867635807192" x="0" y="124.02933186027619" fill="black"></rect></mask></defs><g id="tight-bounds" transform="matrix(1,0,0,1,0,-0.12265107994394953)"><svg viewBox="0 0 320 112.24530215988788" height="112.24530215988788" width="320"><g><svg viewBox="0 0 529.3753056361245 185.68715980346812" height="112.24530215988788" width="320"><g transform="matrix(1,0,0,1,209.3753056361245,22.23457579256001)"><svg viewBox="0 0 320 141.2180082183481" height="141.2180082183481" width="320"><g><svg viewBox="0 0 320 141.2180082183481" height="141.2180082183481" width="320"><rect width="320" height="1.7188676358071922" y="131.76423622140854" fill="#001f3f" mask="url(#cc5abe56-12c6-47c4-85dd-83a004447679)"></rect><g><svg viewBox="0 0 320 100.34118602761981" height="100.34118602761981" width="320"><g transform="matrix(1,0,0,1,0,0)"><svg width="320" viewBox="0.2 -37.4 123.09 38.6" height="100.34118602761981" data-palette-color="#2b2b2b"><path d="M6.15-1.20Q4.75-0.95 3.10-0.60Q1.45-0.25 0.20 0.05L0.20 0.05Q0.80-2.10 1.38-4.78Q1.95-7.45 2.53-10.40Q3.10-13.35 3.63-16.38Q4.15-19.40 4.65-22.20L4.65-22.20Q5.70-28.85 6.75-35.95L6.75-35.95L23.50-36.80L22.05-30.65L14.20-30.65L12.65-21.75Q14.20-21.80 15.60-21.80L15.60-21.80Q16.75-21.80 17.95-21.80Q19.15-21.80 19.80-21.85L19.80-21.85Q19.65-20.45 19.43-19.10Q19.20-17.75 19-16.40L19-16.40Q18.35-16.40 17.15-16.43Q15.95-16.45 14.68-16.50Q13.40-16.55 11.80-16.60L11.80-16.60L9.50-1.85Q7.80-1.55 6.15-1.20L6.15-1.20ZM25.55-1Q25.10-1 23.77-0.88Q22.45-0.75 21.05-0.58Q19.65-0.40 18.52-0.25Q17.40-0.10 17.30-0.05L17.30-0.05Q17.80-2.20 18.32-4.83Q18.85-7.45 19.40-10.33Q19.95-13.20 20.45-16.15Q20.95-19.10 21.40-21.85L21.40-21.85Q22.45-28.25 23.50-35L23.50-35L31.30-36.25Q30.15-29.55 29.05-23.10L29.05-23.10Q28.60-20.35 28.12-17.40Q27.65-14.45 27.17-11.55Q26.70-8.65 26.30-5.93Q25.90-3.20 25.55-1L25.55-1ZM48.70-2Q48.25-2 46.80-1.95Q45.34-1.90 43.37-1.80Q41.39-1.70 39.09-1.55Q36.80-1.40 34.59-1.23Q32.39-1.05 30.52-0.85Q28.64-0.65 27.54-0.45L27.54-0.45L27.59-7.75L41.80-27.10Q40.95-27.10 39.39-26.93Q37.84-26.75 36.27-26.55Q34.70-26.35 33.55-26.15L33.55-26.15L32.34-26.05L33.30-33.90L53.75-35.35L52.45-28.45L38.80-9.05Q39.80-9.05 41.47-9.15Q43.14-9.25 44.95-9.35Q46.75-9.45 48.84-9.60L48.84-9.60L48.70-2ZM70.24-2Q69.79-2 68.34-1.95Q66.89-1.90 64.92-1.80Q62.94-1.70 60.64-1.55Q58.34-1.40 56.14-1.23Q53.94-1.05 52.07-0.85Q50.19-0.65 49.09-0.45L49.09-0.45L49.14-7.75L63.34-27.10Q62.49-27.10 60.94-26.93Q59.39-26.75 57.82-26.55Q56.24-26.35 55.09-26.15L55.09-26.15L53.89-26.05L54.84-33.90L75.29-35.35L73.99-28.45L60.34-9.05Q61.34-9.05 63.02-9.15Q64.69-9.25 66.49-9.35Q68.29-9.45 70.39-9.60L70.39-9.60L70.24-2ZM98.24-27.05Q98.24-22.95 97.37-19.33Q96.49-15.70 95.04-12.68Q93.59-9.65 91.67-7.28Q89.74-4.90 87.64-3.23Q85.54-1.55 83.39-0.68Q81.24 0.20 79.29 0.20L79.29 0.20Q77.64 0.20 76.29-0.43Q74.94-1.05 73.94-2.27Q72.94-3.50 72.37-5.43Q71.79-7.35 71.79-10.05L71.79-10.05Q71.79-12.85 72.49-15.95Q73.19-19.05 74.39-22.10Q75.59-25.15 77.34-27.90Q79.09-30.65 81.19-32.77Q83.29-34.90 85.69-36.15Q88.09-37.40 90.69-37.40L90.69-37.40Q92.94-37.40 94.42-36.48Q95.89-35.55 96.72-34.08Q97.54-32.60 97.89-30.75Q98.24-28.90 98.24-27.05L98.24-27.05ZM79.24-11.35Q79.24-10.80 79.44-10.20Q79.64-9.60 79.99-9.15Q80.34-8.70 80.87-8.38Q81.39-8.05 81.99-8.05L81.99-8.05Q84.24-8.05 85.99-9.60Q87.74-11.15 88.89-13.40Q90.04-15.65 90.67-18.20Q91.29-20.75 91.29-22.85L91.29-22.85Q91.29-23.45 91.22-24.15Q91.14-24.85 90.92-25.45Q90.69-26.05 90.22-26.48Q89.74-26.90 88.94-26.90L88.94-26.90Q87.34-26.90 85.99-26.10Q84.64-25.30 83.57-23.98Q82.49-22.65 81.69-20.98Q80.89-19.30 80.32-17.57Q79.74-15.85 79.49-14.20Q79.24-12.55 79.24-11.35L79.24-11.35ZM122.09-19.05Q121.74-13.95 120.09-10.18Q118.44-6.40 116.11-3.85Q113.79-1.30 111.11-0.05Q108.44 1.20 106.04 1.20L106.04 1.20Q104.19 1.20 102.51 0.40Q100.84-0.40 99.61-2.02Q98.39-3.65 97.69-6.10Q96.99-8.55 96.99-11.85L96.99-11.85Q96.99-18.30 98.84-23.10Q100.69-27.90 103.51-31.10Q106.34-34.30 109.56-35.85Q112.79-37.40 115.59-37.40L115.59-37.40Q117.59-37.40 119.06-36.70Q120.54-36 121.49-34.83Q122.44-33.65 122.86-32.08Q123.29-30.50 123.29-28.75L123.29-28.75L116.44-27.45Q115.99-29.45 115.24-30.30Q114.49-31.15 113.54-31.15L113.54-31.15Q112.29-31.15 110.79-29.38Q109.29-27.60 107.99-24.80Q106.69-22 105.79-18.65Q104.89-15.30 104.79-12.05L104.79-12.05Q104.79-8.95 105.71-7.63Q106.64-6.30 108.09-6.30L108.09-6.30Q109.09-6.30 110.16-6.80Q111.24-7.30 112.09-8.22Q112.94-9.15 113.51-10.38Q114.09-11.60 114.14-13.05L114.14-13.05L108.79-12.25L109.74-17.20Q112.09-17.50 114.34-17.80L114.34-17.80Q116.24-18.05 118.36-18.40Q120.49-18.75 122.09-19.05L122.09-19.05Z" opacity="1" transform="matrix(1,0,0,1,0,0)" fill="#2b2b2b" class="undefined-text-0" data-fill-palette-color="primary" data-stroke-palette-color="" id="text-0"></path></svg></g></svg></g><g transform="matrix(1,0,0,1,0,124.02933186027619)"><svg viewBox="0 0 320 17.18867635807192" height="17.18867635807192" width="320"><g transform="matrix(1,0,0,1,8,0)"><svg width="304" viewBox="0.6 -36.55 653.4499999999999 36.949999999999996" height="17.18867635807192" data-palette-color="#001f3f"><path d="M0.60-36.15L29.13-36.15L29.13-30.63L18.25-30.63L18.25 0L11.53 0L11.53-30.63L0.60-30.63L0.60-36.15ZM63.90-36.15L63.90 0L57.12 0L57.12-15.80L40.17-15.80L40.17 0L33.40 0L33.40-36.15L40.17-36.15L40.17-20.60L57.12-20.60L57.12-36.15L63.90-36.15ZM71.20-36.15L94.00-36.15L94.00-30.80L77.97-30.80L77.97-20.78L90.59-20.78L90.59-15.60L77.97-15.60L77.97-5.38L94.00-5.38L94.00 0L71.20 0L71.20-36.15ZM130.49-32.75L128.84-29.58Q128.56-29.03 128.20-28.80Q127.84-28.58 127.34-28.58L127.34-28.58Q126.84-28.58 126.22-28.96Q125.59-29.35 124.74-29.83Q123.89-30.30 122.75-30.69Q121.62-31.08 120.07-31.08L120.07-31.08Q118.67-31.08 117.63-30.74Q116.59-30.40 115.88-29.80Q115.17-29.20 114.82-28.36Q114.47-27.53 114.47-26.53L114.47-26.53Q114.47-25.25 115.18-24.40Q115.89-23.55 117.07-22.95Q118.24-22.35 119.74-21.88Q121.24-21.40 122.80-20.86Q124.37-20.33 125.87-19.61Q127.37-18.90 128.54-17.81Q129.72-16.73 130.43-15.15Q131.14-13.58 131.14-11.33L131.14-11.33Q131.14-8.88 130.30-6.74Q129.47-4.60 127.85-3.01Q126.24-1.43 123.92-0.51Q121.59 0.40 118.59 0.40L118.59 0.40Q116.87 0.40 115.19 0.06Q113.52-0.28 111.98-0.90Q110.44-1.53 109.10-2.40Q107.77-3.28 106.72-4.35L106.72-4.35L108.67-7.58Q108.94-7.93 109.33-8.16Q109.72-8.40 110.19-8.40L110.19-8.40Q110.82-8.40 111.54-7.89Q112.27-7.38 113.25-6.75Q114.24-6.13 115.58-5.61Q116.92-5.10 118.79-5.10L118.79-5.10Q121.67-5.10 123.24-6.46Q124.82-7.83 124.82-10.38L124.82-10.38Q124.82-11.80 124.10-12.70Q123.39-13.60 122.22-14.21Q121.04-14.83 119.54-15.25Q118.04-15.68 116.49-16.18Q114.94-16.68 113.44-17.38Q111.94-18.07 110.77-19.20Q109.59-20.33 108.88-22.01Q108.17-23.70 108.17-26.18L108.17-26.18Q108.17-28.15 108.95-30.03Q109.74-31.90 111.25-33.35Q112.77-34.80 114.97-35.68Q117.17-36.55 119.99-36.55L119.99-36.55Q123.19-36.55 125.89-35.55Q128.59-34.55 130.49-32.75L130.49-32.75ZM170.96-18.07L170.96-18.07Q170.96-14.10 169.64-10.71Q168.31-7.33 165.91-4.85Q163.51-2.38 160.14-0.99Q156.76 0.40 152.66 0.40L152.66 0.40Q148.56 0.40 145.18-0.99Q141.79-2.38 139.38-4.85Q136.96-7.33 135.64-10.71Q134.31-14.10 134.31-18.07L134.31-18.07Q134.31-22.05 135.64-25.44Q136.96-28.83 139.38-31.30Q141.79-33.77 145.18-35.16Q148.56-36.55 152.66-36.55L152.66-36.55Q156.76-36.55 160.14-35.15Q163.51-33.75 165.91-31.29Q168.31-28.83 169.64-25.44Q170.96-22.05 170.96-18.07ZM164.06-18.07L164.06-18.07Q164.06-21.05 163.28-23.41Q162.49-25.78 161.01-27.43Q159.54-29.08 157.43-29.95Q155.31-30.83 152.66-30.83L152.66-30.83Q150.01-30.83 147.89-29.95Q145.76-29.08 144.28-27.43Q142.79-25.78 141.99-23.41Q141.19-21.05 141.19-18.07L141.19-18.07Q141.19-15.10 141.99-12.74Q142.79-10.38 144.28-8.74Q145.76-7.10 147.89-6.23Q150.01-5.35 152.66-5.35L152.66-5.35Q155.31-5.35 157.43-6.23Q159.54-7.10 161.01-8.74Q162.49-10.38 163.28-12.74Q164.06-15.10 164.06-18.07ZM176.26-36.15L199.06-36.15L199.06-30.80L183.04-30.80L183.04-20.10L196.56-20.10L196.56-14.73L183.04-14.73L183.04 0L176.26 0L176.26-36.15ZM201.28-36.15L229.81-36.15L229.81-30.63L218.93-30.63L218.93 0L212.21 0L212.21-30.63L201.28-30.63L201.28-36.15ZM241.96 0L230.73-36.15L236.38-36.15Q237.25-36.15 237.84-35.74Q238.43-35.33 238.63-34.63L238.63-34.63L244.78-13Q245.00-12.20 245.19-11.26Q245.38-10.33 245.56-9.28L245.56-9.28Q245.75-10.33 245.99-11.26Q246.23-12.20 246.50-13L246.50-13L253.61-34.63Q253.81-35.20 254.39-35.68Q254.98-36.15 255.83-36.15L255.83-36.15L257.81-36.15Q258.68-36.15 259.25-35.74Q259.83-35.33 260.06-34.63L260.06-34.63L267.11-13Q267.66-11.40 268.06-9.45L268.06-9.45Q268.23-10.43 268.42-11.33Q268.61-12.23 268.81-13L268.81-13L274.96-34.63Q275.13-35.25 275.73-35.70Q276.33-36.15 277.18-36.15L277.18-36.15L282.46-36.15L271.23 0L265.16 0L257.25-24.70Q257.11-25.18 256.94-25.73Q256.78-26.28 256.63-26.90L256.63-26.90Q256.48-26.28 256.32-25.73Q256.16-25.18 256.00-24.70L256.00-24.70L248.03 0L241.96 0ZM301.03-36.15L315.23 0L310.03 0Q309.15 0 308.59-0.44Q308.03-0.88 307.78-1.53L307.78-1.53L305.08-8.90L290.10-8.90L287.40-1.53Q287.20-0.95 286.62-0.48Q286.03 0 285.18 0L285.18 0L279.95 0L294.15-36.15L301.03-36.15ZM296.23-25.63L291.83-13.65L303.35-13.65L298.95-25.68Q298.65-26.48 298.29-27.56Q297.93-28.65 297.58-29.93L297.58-29.93Q297.23-28.65 296.89-27.55Q296.55-26.45 296.23-25.63L296.23-25.63ZM328.78-14.13L325.90-14.13L325.90 0L319.18 0L319.18-36.15L330.20-36.15Q333.90-36.15 336.54-35.39Q339.18-34.63 340.86-33.25Q342.55-31.88 343.34-29.96Q344.13-28.05 344.13-25.75L344.13-25.75Q344.13-23.93 343.59-22.30Q343.05-20.68 342.04-19.35Q341.03-18.03 339.54-17.03Q338.05-16.03 336.15-15.43L336.15-15.43Q337.43-14.70 338.35-13.35L338.35-13.35L347.40 0L341.35 0Q340.48 0 339.86-0.35Q339.25-0.70 338.82-1.35L338.82-1.35L331.23-12.93Q330.80-13.58 330.29-13.85Q329.78-14.13 328.78-14.13L328.78-14.13ZM325.90-30.95L325.90-18.95L330.10-18.95Q332-18.95 333.41-19.43Q334.82-19.90 335.74-20.74Q336.65-21.58 337.10-22.73Q337.55-23.88 337.55-25.25L337.55-25.25Q337.55-28 335.74-29.48Q333.93-30.95 330.20-30.95L330.20-30.95L325.90-30.95ZM351.70-36.15L374.50-36.15L374.50-30.80L358.47-30.80L358.47-20.78L371.10-20.78L371.10-15.60L358.47-15.60L358.47-5.38L374.50-5.38L374.50 0L351.70 0L351.70-36.15ZM408.12-15L408.12-15Q408.54-14.20 408.90-13.34Q409.27-12.48 409.62-11.60L409.62-11.60Q409.97-12.50 410.34-13.38Q410.72-14.25 411.14-15.05L411.14-15.05L421.84-35.08Q422.04-35.45 422.25-35.68Q422.47-35.90 422.73-36Q422.99-36.10 423.32-36.13Q423.64-36.15 424.09-36.15L424.09-36.15L429.17-36.15L429.17 0L423.24 0L423.24-23.35Q423.24-24 423.28-24.78Q423.32-25.55 423.39-26.35L423.39-26.35L412.47-5.85Q412.09-5.15 411.49-4.76Q410.89-4.38 410.09-4.38L410.09-4.38L409.17-4.38Q408.37-4.38 407.77-4.76Q407.17-5.15 406.79-5.85L406.79-5.85L395.72-26.43Q395.82-25.60 395.86-24.81Q395.89-24.03 395.89-23.35L395.89-23.35L395.89 0L389.97 0L389.97-36.15L395.04-36.15Q395.49-36.15 395.82-36.13Q396.14-36.10 396.40-36Q396.67-35.90 396.89-35.68Q397.12-35.45 397.32-35.08L397.32-35.08L408.12-15ZM436.46-36.15L459.26-36.15L459.26-30.80L443.24-30.80L443.24-20.78L455.87-20.78L455.87-15.60L443.24-15.60L443.24-5.38L459.26-5.38L459.26 0L436.46 0L436.46-36.15ZM489.94-8.53L489.94-8.53Q490.49-8.53 490.89-8.10L490.89-8.10L493.54-5.23Q491.34-2.50 488.13-1.05Q484.91 0.40 480.41 0.40L480.41 0.40Q476.39 0.40 473.18-0.98Q469.96-2.35 467.69-4.80Q465.41-7.25 464.20-10.65Q462.99-14.05 462.99-18.07L462.99-18.07Q462.99-22.15 464.34-25.54Q465.69-28.93 468.14-31.38Q470.59-33.83 474-35.19Q477.41-36.55 481.54-36.55L481.54-36.55Q485.56-36.55 488.57-35.26Q491.59-33.98 493.74-31.85L493.74-31.85L491.49-28.73Q491.29-28.43 490.98-28.20Q490.66-27.98 490.11-27.98L490.11-27.98Q489.54-27.98 488.94-28.43Q488.34-28.88 487.41-29.40Q486.49-29.93 485.07-30.38Q483.66-30.83 481.49-30.83L481.49-30.83Q478.94-30.83 476.80-29.94Q474.66-29.05 473.13-27.40Q471.59-25.75 470.73-23.39Q469.86-21.03 469.86-18.07L469.86-18.07Q469.86-15.03 470.73-12.65Q471.59-10.28 473.06-8.65Q474.54-7.03 476.54-6.16Q478.54-5.30 480.84-5.30L480.84-5.30Q482.21-5.30 483.32-5.45Q484.44-5.60 485.38-5.93Q486.31-6.25 487.15-6.76Q487.99-7.28 488.81-8.03L488.81-8.03Q489.06-8.25 489.34-8.39Q489.61-8.53 489.94-8.53ZM529.11-36.15L529.11 0L522.34 0L522.34-15.80L505.38-15.80L505.38 0L498.61 0L498.61-36.15L505.38-36.15L505.38-20.60L522.34-20.60L522.34-36.15L529.11-36.15ZM553.98-36.15L568.18 0L562.98 0Q562.11 0 561.54-0.44Q560.98-0.88 560.73-1.53L560.73-1.53L558.03-8.90L543.06-8.90L540.36-1.53Q540.16-0.95 539.57-0.48Q538.98 0 538.13 0L538.13 0L532.91 0L547.11-36.15L553.98-36.15ZM549.18-25.63L544.78-13.65L556.31-13.65L551.91-25.68Q551.61-26.48 551.24-27.56Q550.88-28.65 550.53-29.93L550.53-29.93Q550.18-28.65 549.84-27.55Q549.51-26.45 549.18-25.63L549.18-25.63ZM575.43-36.15L575.43-36.15Q575.88-36.15 576.18-36.11Q576.48-36.08 576.72-35.96Q576.95-35.85 577.18-35.64Q577.40-35.43 577.68-35.08L577.68-35.08L596.65-10.90Q596.55-11.78 596.52-12.61Q596.48-13.45 596.48-14.18L596.48-14.18L596.48-36.15L602.40-36.15L602.40 0L598.93 0Q598.13 0 597.60-0.25Q597.08-0.50 596.58-1.15L596.58-1.15L577.68-25.23Q577.75-24.43 577.79-23.64Q577.83-22.85 577.83-22.20L577.83-22.20L577.83 0L571.90 0L571.90-36.15L575.43-36.15ZM617.28-36.15L617.28 0L610.53 0L610.53-36.15L617.28-36.15ZM650.25-8.53L650.25-8.53Q650.80-8.53 651.20-8.10L651.20-8.10L653.85-5.23Q651.65-2.50 648.44-1.05Q645.22 0.40 640.72 0.40L640.72 0.40Q636.70 0.40 633.49-0.98Q630.27-2.35 628.00-4.80Q625.72-7.25 624.51-10.65Q623.30-14.05 623.30-18.07L623.30-18.07Q623.30-22.15 624.65-25.54Q626.00-28.93 628.45-31.38Q630.90-33.83 634.31-35.19Q637.72-36.55 641.85-36.55L641.85-36.55Q645.87-36.55 648.89-35.26Q651.90-33.98 654.05-31.85L654.05-31.85L651.80-28.73Q651.60-28.43 651.29-28.20Q650.97-27.98 650.42-27.98L650.42-27.98Q649.85-27.98 649.25-28.43Q648.65-28.88 647.72-29.40Q646.80-29.93 645.39-30.38Q643.97-30.83 641.80-30.83L641.80-30.83Q639.25-30.83 637.11-29.94Q634.97-29.05 633.44-27.40Q631.90-25.75 631.04-23.39Q630.17-21.03 630.17-18.07L630.17-18.07Q630.17-15.03 631.04-12.65Q631.90-10.28 633.37-8.65Q634.85-7.03 636.85-6.16Q638.85-5.30 641.15-5.30L641.15-5.30Q642.52-5.30 643.64-5.45Q644.75-5.60 645.69-5.93Q646.62-6.25 647.46-6.76Q648.30-7.28 649.12-8.03L649.12-8.03Q649.37-8.25 649.65-8.39Q649.92-8.53 650.25-8.53Z" opacity="1" transform="matrix(1,0,0,1,0,0)" fill="#001f3f" class="undefined-text-1" data-fill-palette-color="secondary" data-stroke-palette-color="" id="text-1"></path></svg></g></svg></g></svg></g></svg></g><g><svg viewBox="0 0 185.68715980346812 185.68715980346812" height="185.68715980346812" width="185.68715980346812"><g><svg xmlns="http://www.w3.org/2000/svg" version="1.1" xmlns:xlink="http://www.w3.org/1999/xlink" xmlns:svgjs="http://svgjs.com/svgjs"></svg></g><g id="icon-0"><svg viewBox="0 0 185.68715980346812 185.68715980346812" height="185.68715980346812" width="185.68715980346812"><g><ellipse rx="92.84357990173406" ry="92.84357990173406" cx="92.84357990173406" cy="92.84357990173406" fill="#f4a424" stroke="transparent" stroke-width="0" fill-opacity="1" data-fill-palette-color="accent" data-stroke-palette-color=""></ellipse><ellipse rx="84.94761025133471" ry="84.94761025133471" cx="92.84357990173406" cy="92.84357990173406" fill="#ffffff" stroke="transparent" stroke-width="0" data-fill-palette-color="quaternary" data-stroke-palette-color=""></ellipse></g><g transform="matrix(1,0,0,1,59.63627314914767,37.49806864742341)"><svg viewBox="0 0 66.41461350517278 110.6910225086213" height="110.6910225086213" width="66.41461350517278"><g><svg xmlns="http://www.w3.org/2000/svg" xmlns:xlink="http://www.w3.org/1999/xlink" version="1.1" x="0" y="0" viewBox="14 2 36 60" style="enable-background:new 0 0 64 64;" xml:space="preserve" height="110.6910225086213" width="66.41461350517278" class="icon-symbol-0" fill="#f4a424" data-fill-palette-color="accent" data-stroke-palette-color="" id="symbol-0"><path d="M45,36h-3v-4H14v25c0,2.8,2.2,5,5,5h18c2.8,0,5-2.2,5-5v-3h3c2.8,0,5-2.2,5-5v-8C50,38.2,47.8,36,45,36z M23.9,54.5l-1.7,1  L17.8,48l4.3-7.5l1.7,1L20.2,48L23.9,54.5z M27,55.3L25,54.7l4-14l1.9,0.5L27,55.3z M33.9,55.5l-1.7-1l3.7-6.5l-3.7-6.5l1.7-1  l4.3,7.5L33.9,55.5z M48,49c0,1.7-1.3,3-3,3h-3V38h3c1.7,0,3,1.3,3,3V49z" fill="#f4a424" data-fill-palette-color="accent" data-stroke-palette-color=""></path><g><path d="M38,30h-2v-2c0-1.1-0.9-2-2-2H20c-2.2,0-4-1.8-4-4s1.8-4,4-4h14c1.1,0,2-0.9,2-2s-0.9-2-2-2H20c-2.2,0-4-1.8-4-4s1.8-4,4-4   h14c1.1,0,2-0.9,2-2V2h2v2c0,2.2-1.8,4-4,4H20c-1.1,0-2,0.9-2,2s0.9,2,2,2h14c2.2,0,4,1.8,4,4s-1.8,4-4,4H20c-1.1,0-2,0.9-2,2   s0.9,2,2,2h14c2.2,0,4,1.8,4,4V30z" fill="#f4a424" data-fill-palette-color="accent" data-stroke-palette-color=""></path></g></svg></g></svg></g></svg></g></svg></g></svg></g></svg></g></svg></g></svg>